<?xml version="1.0" standalone="no"?>
<!DOCTYPE svg PUBLIC "-//W3C//DTD SVG 20010904//EN"
 "http://www.w3.org/TR/2001/REC-SVG-20010904/DTD/svg10.dtd">
<svg version="1.0" xmlns="http://www.w3.org/2000/svg"
 width="256.000000pt" height="256.000000pt" viewBox="0 0 256.000000 256.000000"
 preserveAspectRatio="xMidYMid meet">
<metadata>
Created by potrace 1.11, written by Peter Selinger 2001-2013
</metadata>
<g transform="translate(0.000000,256.000000) scale(0.100000,-0.100000)"
fill="#000000" stroke="none">
<path d="M1266 2428 c-28 -39 -19 -63 39 -116 35 -32 55 -59 56 -74 0 -19 2
-20 7 -5 7 16 11 14 37 -13 29 -30 75 -41 75 -17 0 6 -29 36 -65 65 -36 29
-65 58 -65 64 0 5 -6 8 -12 5 -7 -2 -22 -1 -33 3 -16 6 -19 15 -16 58 1 29 0
52 -3 52 -3 0 -12 -10 -20 -22z"/>
<path d="M1594 2199 c-34 -36 -93 -69 -126 -70 -13 0 -17 -3 -10 -6 6 -2 10
-9 6 -14 -9 -15 29 -10 76 12 49 22 100 65 100 85 0 25 -18 23 -46 -7z"/>
<path d="M1867 1926 c-6 -15 1 -26 15 -26 11 0 10 27 -1 34 -5 3 -11 0 -14 -8z"/>
<path d="M1585 1631 c-34 -15 -57 -48 -66 -98 -13 -71 -68 -174 -105 -195 -31
-18 -32 -18 -55 1 l-24 20 41 43 c50 52 64 77 64 115 0 36 -16 53 -50 53 -44
0 -77 -46 -110 -152 -52 -167 -90 -183 -90 -39 0 81 2 90 23 104 l22 16 -22 0
c-21 1 -23 6 -23 57 0 47 -3 55 -17 52 -14 -3 -19 -15 -21 -65 -2 -51 -6 -62
-22 -66 -11 -3 -20 -11 -20 -17 0 -7 6 -10 14 -7 8 3 16 3 19 1 7 -7 -39 -142
-54 -160 -19 -23 -32 -16 -26 14 8 41 -9 104 -34 125 -59 48 -140 -13 -164
-123 -11 -50 -52 -140 -64 -140 -7 0 -11 32 -11 86 0 92 -10 124 -39 124 -27
0 -50 -31 -77 -102 l-23 -63 0 68 c-1 69 -8 79 -35 51 -13 -12 -16 -40 -16
-134 0 -65 4 -121 8 -124 18 -11 34 14 48 75 18 78 51 164 70 180 12 10 14 -3
14 -84 0 -74 4 -99 16 -111 8 -9 19 -16 22 -16 21 0 52 35 68 76 l17 46 14
-26 c30 -56 91 -62 138 -12 17 19 40 35 51 37 12 3 31 27 49 64 l30 60 5 -53
c5 -47 19 -71 41 -72 17 0 57 43 73 79 l18 40 34 -36 c37 -39 62 -40 115 -2
27 19 99 147 99 176 0 18 95 -29 104 -52 8 -22 -9 -52 -34 -60 -26 -8 -40 1
-40 26 0 25 -12 24 -36 -2 -19 -21 -18 -21 5 -40 28 -23 59 -17 119 23 46 31
83 94 103 171 17 70 4 80 -16 12 -10 -33 -27 -78 -38 -100 l-21 -40 -6 30 c-3
19 -17 37 -40 52 -73 46 -76 50 -64 70 15 24 49 24 48 0 -1 -12 4 -17 15 -15
10 2 16 13 16 33 0 33 -22 42 -60 26z m-187 -129 c3 -36 -2 -46 -33 -79 l-37
-38 6 58 c8 99 58 144 64 59z m-398 -87 c8 -9 13 -46 14 -88 2 -107 -31 -160
-74 -117 -16 16 -20 34 -20 88 0 98 43 161 80 117z"/>
<path d="M1755 1440 c-12 -4 -27 -15 -35 -25 -47 -57 -381 -179 -848 -311 -96
-27 -169 -50 -164 -52 29 -9 445 106 715 198 302 103 404 156 365 187 -7 6
-22 7 -33 3z"/>
<path d="M1270 1140 c-149 -31 -253 -58 -231 -59 7 -1 86 13 173 30 88 17 162
29 164 26 4 -4 -132 -36 -391 -92 -158 -34 -106 -30 81 6 298 57 444 93 444
110 0 17 -104 8 -240 -21z"/>
<path d="M2066 748 c-3 -134 -9 -316 -12 -406 -4 -103 -3 -162 3 -162 10 0 29
797 20 806 -2 3 -7 -105 -11 -238z"/>
<path d="M2130 602 c0 -224 4 -362 10 -362 8 0 3 709 -6 719 -2 2 -4 -158 -4
-357z"/>
</g>
</svg>
